<svg xmlns="http://www.w3.org/2000/svg" xmlns:xlink="http://www.w3.org/1999/xlink" width="500" zoomAndPan="magnify" viewBox="0 0 375 374.999991" height="500" preserveAspectRatio="xMidYMid meet" version="1.0"><defs><clipPath id="2dc903539e"><path d="M 239 297 L 277 297 L 277 312.492188 L 239 312.492188 Z M 239 297 " clip-rule="nonzero"/></clipPath></defs><path fill="#d4def9" d="M 11.621094 293.015625 C 12.15625 294.847656 12.765625 296.605469 13.453125 298.4375 C 14.828125 302.027344 16.433594 305.542969 18.417969 308.902344 L 303.472656 308.902344 C 303.320312 305.390625 303.167969 301.875 303.167969 298.4375 L 303.167969 298.285156 C 303.167969 296.53125 303.167969 294.773438 303.246094 293.015625 C 304.160156 275.984375 310.425781 260.710938 319.511719 246.042969 C 332.804688 224.582031 350.828125 204.113281 355.183594 178.453125 C 361.445312 141.714844 347.164062 102.6875 308.515625 92.148438 C 283.996094 85.503906 259.171875 94.667969 235.035156 98.714844 C 215.328125 102 195.089844 98.257812 176.527344 91.535156 C 173.167969 90.3125 169.730469 89.015625 166.367188 87.71875 C 143.914062 78.933594 121.609375 68.394531 98.007812 65.109375 C 81.128906 62.742188 65.546875 66.027344 56.074219 78.476562 C 53.707031 81.53125 51.796875 85.195312 50.269531 89.472656 C 50.039062 90.238281 49.734375 90.925781 49.582031 91.6875 C 49.582031 91.6875 49.582031 91.6875 49.582031 91.765625 C 47.75 97.875 46.984375 104.136719 46.757812 110.554688 C 46.296875 123.230469 47.824219 136.292969 45.992188 148.664062 C 44.386719 159.359375 40.492188 169.210938 35.832031 178.757812 C 27.738281 195.332031 17.273438 210.988281 12.691406 228.9375 C 11.390625 234.054688 10.246094 239.398438 9.480469 244.824219 C 7.039062 260.9375 7.113281 277.664062 11.621094 293.015625 Z M 11.621094 293.015625 " fill-opacity="1" fill-rule="nonzero"/><path fill="#5385ea" d="M 72.953125 253.378906 L 70.359375 253.070312 L 72.726562 254.523438 C 71.351562 261.242188 67.300781 265.902344 66.996094 266.207031 C 66.003906 267.277344 62.335938 264.832031 61.648438 264.222656 C 58.976562 261.777344 57.679688 258.265625 56.53125 254.980469 C 55.082031 250.933594 53.78125 246.886719 52.027344 242.914062 C 50.652344 239.78125 49.125 236.726562 47.671875 233.59375 L 48.972656 229.777344 L 45.761719 229.472656 C 45.457031 228.785156 45.152344 228.097656 44.847656 227.410156 C 43.546875 224.355469 42.25 221.222656 41.105469 218.089844 C 41.714844 218.320312 56.761719 223.972656 65.929688 233.441406 L 64.707031 235.351562 L 68.21875 236.039062 C 69.363281 237.492188 70.359375 239.019531 71.121094 240.621094 C 73.261719 245.203125 73.566406 249.632812 72.953125 253.378906 Z M 72.953125 253.378906 " fill-opacity="1" fill-rule="nonzero"/><path fill="#5385ea" d="M 104.578125 244.671875 C 104.269531 245.050781 103.964844 245.433594 103.660156 245.816406 C 100.832031 249.789062 97.777344 253.53125 94.417969 257.042969 L 92.738281 255.972656 C 92.738281 255.972656 93.273438 257.042969 93.652344 257.808594 C 90.75 260.863281 87.621094 263.6875 84.410156 266.4375 C 83.496094 267.199219 82.503906 267.964844 81.355469 268.421875 L 79.980469 266.972656 C 79.980469 266.972656 79.980469 268.042969 79.980469 268.804688 C 79.445312 268.882812 78.988281 268.957031 78.453125 268.882812 C 77.765625 268.804688 75.324219 268.269531 74.941406 267.660156 C 74.941406 267.660156 71.65625 260.25 77.917969 253.683594 C 78.605469 252.996094 79.292969 252.382812 80.058594 251.847656 L 81.128906 253.222656 L 82.882812 250.246094 C 84.566406 249.480469 86.320312 248.792969 88 248.261719 C 91.746094 247.039062 95.714844 246.121094 99.613281 245.433594 C 101.445312 245.128906 102.972656 244.898438 104.578125 244.671875 Z M 104.578125 244.671875 " fill-opacity="1" fill-rule="nonzero"/><path fill="#5385ea" d="M 58.671875 272.699219 C 54.394531 274.53125 49.351562 272.929688 44.847656 270.179688 C 45.457031 268.957031 46.601562 266.511719 46.757812 266.359375 C 46.832031 266.207031 44.539062 268.042969 43.242188 269.109375 C 36.75 264.832031 31.554688 258.800781 31.554688 258.800781 C 31.554688 258.800781 48.664062 257.730469 55.003906 261.015625 C 55.617188 261.320312 56.152344 261.703125 56.609375 262.082031 L 56.074219 263.382812 L 57.527344 263 C 60.582031 266.894531 58.671875 272.699219 58.671875 272.699219 Z M 58.671875 272.699219 " fill-opacity="1" fill-rule="nonzero"/><path fill="#262a41" d="M 66.921875 285.226562 L 66.15625 285.074219 C 66.234375 284.691406 71.808594 248.183594 50.574219 227.789062 L 51.109375 227.257812 C 72.648438 247.953125 66.996094 284.921875 66.921875 285.226562 Z M 66.921875 285.226562 " fill-opacity="1" fill-rule="nonzero"/><path fill="#262a41" d="M 67.761719 290.496094 L 66.996094 290.417969 C 66.996094 290.113281 69.363281 261.167969 93.578125 251.390625 L 93.882812 252.078125 C 70.128906 261.703125 67.761719 290.191406 67.761719 290.496094 Z M 67.761719 290.496094 " fill-opacity="1" fill-rule="nonzero"/><path fill="#262a41" d="M 65.851562 283.394531 C 65.773438 283.238281 56.152344 265.214844 41.714844 261.929688 L 41.867188 261.167969 C 56.6875 264.527344 66.460938 282.859375 66.539062 283.011719 Z M 65.851562 283.394531 " fill-opacity="1" fill-rule="nonzero"/><path fill="#262a41" d="M 82.273438 281.941406 L 75.015625 308.136719 L 59.816406 308.136719 L 52.636719 282.09375 C 52.636719 282.019531 52.636719 282.019531 52.636719 282.019531 L 52.636719 281.941406 Z M 82.273438 281.941406 " fill-opacity="1" fill-rule="nonzero"/><path fill="#ffffff" d="M 249.320312 116.050781 L 249.320312 244.976562 C 249.320312 247.800781 247.257812 250.015625 244.660156 250.015625 L 44.007812 250.015625 C 41.410156 250.015625 39.347656 247.726562 39.347656 244.976562 L 39.347656 116.050781 C 39.347656 113.226562 41.410156 111.011719 44.007812 111.011719 L 244.660156 111.011719 C 247.257812 111.011719 249.320312 113.304688 249.320312 116.050781 Z M 249.320312 116.050781 " fill-opacity="1" fill-rule="nonzero"/><path fill="#262a41" d="M 244.660156 250.476562 L 44.007812 250.476562 C 41.179688 250.476562 38.964844 248.03125 38.964844 245.050781 L 38.964844 116.050781 C 38.964844 113.074219 41.257812 110.628906 44.007812 110.628906 L 244.660156 110.628906 C 247.410156 110.628906 249.699219 113.074219 249.699219 116.050781 L 249.699219 244.976562 C 249.699219 248.03125 247.484375 250.476562 244.660156 250.476562 Z M 44.007812 111.394531 C 41.636719 111.394531 39.730469 113.457031 39.730469 116.050781 L 39.730469 244.976562 C 39.730469 247.574219 41.636719 249.632812 44.007812 249.632812 L 244.660156 249.632812 C 247.027344 249.632812 248.9375 247.496094 248.9375 244.976562 L 248.9375 116.050781 C 248.9375 113.457031 247.027344 111.394531 244.660156 111.394531 Z M 44.007812 111.394531 " fill-opacity="1" fill-rule="nonzero"/><path fill="#262a41" d="M 249.320312 116.050781 L 249.320312 125.292969 L 39.269531 125.292969 L 39.269531 116.050781 C 39.269531 113.226562 41.332031 111.011719 43.929688 111.011719 L 244.660156 111.011719 C 247.257812 111.011719 249.320312 113.304688 249.320312 116.050781 Z M 249.320312 116.050781 " fill-opacity="1" fill-rule="nonzero"/><path fill="#ffffff" d="M 53.019531 118.648438 C 53.019531 118.953125 52.960938 119.246094 52.84375 119.527344 C 52.730469 119.808594 52.5625 120.054688 52.347656 120.269531 C 52.132812 120.484375 51.886719 120.648438 51.605469 120.765625 C 51.324219 120.882812 51.03125 120.941406 50.726562 120.941406 C 50.425781 120.941406 50.132812 120.882812 49.851562 120.765625 C 49.570312 120.648438 49.324219 120.484375 49.109375 120.269531 C 48.894531 120.054688 48.726562 119.808594 48.609375 119.527344 C 48.496094 119.246094 48.4375 118.953125 48.4375 118.648438 C 48.4375 118.34375 48.496094 118.054688 48.609375 117.773438 C 48.726562 117.492188 48.894531 117.242188 49.109375 117.027344 C 49.324219 116.8125 49.570312 116.648438 49.851562 116.53125 C 50.132812 116.417969 50.425781 116.359375 50.726562 116.359375 C 51.03125 116.359375 51.324219 116.417969 51.605469 116.53125 C 51.886719 116.648438 52.132812 116.8125 52.347656 117.027344 C 52.5625 117.242188 52.730469 117.492188 52.84375 117.773438 C 52.960938 118.054688 53.019531 118.34375 53.019531 118.648438 Z M 53.019531 118.648438 " fill-opacity="1" fill-rule="nonzero"/><path fill="#ffffff" d="M 64.398438 118.648438 C 64.398438 118.953125 64.34375 119.246094 64.226562 119.527344 C 64.109375 119.808594 63.945312 120.054688 63.730469 120.269531 C 63.515625 120.484375 63.265625 120.648438 62.984375 120.765625 C 62.703125 120.882812 62.414062 120.941406 62.109375 120.941406 C 61.804688 120.941406 61.511719 120.882812 61.230469 120.765625 C 60.949219 120.648438 60.703125 120.484375 60.488281 120.269531 C 60.273438 120.054688 60.109375 119.808594 59.992188 119.527344 C 59.875 119.246094 59.816406 118.953125 59.816406 118.648438 C 59.816406 118.34375 59.875 118.054688 59.992188 117.773438 C 60.109375 117.492188 60.273438 117.242188 60.488281 117.027344 C 60.703125 116.8125 60.949219 116.648438 61.230469 116.53125 C 61.511719 116.417969 61.804688 116.359375 62.109375 116.359375 C 62.414062 116.359375 62.703125 116.417969 62.984375 116.53125 C 63.265625 116.648438 63.515625 116.8125 63.730469 117.027344 C 63.945312 117.242188 64.109375 117.492188 64.226562 117.773438 C 64.34375 118.054688 64.398438 118.34375 64.398438 118.648438 Z M 64.398438 118.648438 " fill-opacity="1" fill-rule="nonzero"/><path fill="#ffffff" d="M 75.78125 118.648438 C 75.78125 118.953125 75.722656 119.246094 75.605469 119.527344 C 75.488281 119.808594 75.324219 120.054688 75.109375 120.269531 C 74.894531 120.484375 74.648438 120.648438 74.367188 120.765625 C 74.085938 120.882812 73.792969 120.941406 73.488281 120.941406 C 73.1875 120.941406 72.894531 120.882812 72.613281 120.765625 C 72.332031 120.648438 72.085938 120.484375 71.871094 120.269531 C 71.65625 120.054688 71.488281 119.808594 71.371094 119.527344 C 71.257812 119.246094 71.199219 118.953125 71.199219 118.648438 C 71.199219 118.34375 71.257812 118.054688 71.371094 117.773438 C 71.488281 117.492188 71.65625 117.242188 71.871094 117.027344 C 72.085938 116.8125 72.332031 116.648438 72.613281 116.53125 C 72.894531 116.417969 73.1875 116.359375 73.488281 116.359375 C 73.792969 116.359375 74.085938 116.417969 74.367188 116.53125 C 74.648438 116.648438 74.894531 116.8125 75.109375 117.027344 C 75.324219 117.242188 75.488281 117.492188 75.605469 117.773438 C 75.722656 118.054688 75.78125 118.34375 75.78125 118.648438 Z M 75.78125 118.648438 " fill-opacity="1" fill-rule="nonzero"/><path fill="#5385ea" d="M 140.015625 202.433594 L 112.980469 175.398438 L 99.535156 188.914062 L 83.648438 173.640625 L 58.441406 198.921875 L 57.449219 197.929688 L 83.648438 171.730469 L 99.460938 186.929688 L 112.980469 173.410156 L 140.015625 200.371094 L 175.992188 164.398438 L 195.851562 184.257812 L 229.078125 151.03125 L 230.070312 152.027344 L 195.851562 186.242188 L 175.992188 166.382812 Z M 140.015625 202.433594 " fill-opacity="1" fill-rule="nonzero"/><path fill="#262a41" d="M 233.125 150.421875 C 233.125 150.828125 233.046875 151.214844 232.894531 151.589844 C 232.738281 151.964844 232.519531 152.296875 232.230469 152.582031 C 231.945312 152.867188 231.613281 153.089844 231.238281 153.246094 C 230.867188 153.398438 230.476562 153.476562 230.070312 153.476562 C 229.664062 153.476562 229.277344 153.398438 228.902344 153.246094 C 228.527344 153.089844 228.195312 152.867188 227.910156 152.582031 C 227.625 152.296875 227.402344 151.964844 227.25 151.589844 C 227.09375 151.214844 227.015625 150.828125 227.015625 150.421875 C 227.015625 150.015625 227.09375 149.628906 227.25 149.253906 C 227.402344 148.878906 227.625 148.546875 227.910156 148.261719 C 228.195312 147.976562 228.527344 147.753906 228.902344 147.597656 C 229.277344 147.445312 229.664062 147.367188 230.070312 147.367188 C 230.476562 147.367188 230.867188 147.445312 231.238281 147.597656 C 231.613281 147.753906 231.945312 147.976562 232.230469 148.261719 C 232.519531 148.546875 232.738281 148.878906 232.894531 149.253906 C 233.046875 149.628906 233.125 150.015625 233.125 150.421875 Z M 233.125 150.421875 " fill-opacity="1" fill-rule="nonzero"/><path fill="#262a41" d="M 198.984375 185.25 C 198.984375 185.65625 198.90625 186.042969 198.75 186.417969 C 198.597656 186.792969 198.375 187.125 198.089844 187.410156 C 197.800781 187.695312 197.472656 187.917969 197.097656 188.070312 C 196.722656 188.226562 196.332031 188.304688 195.929688 188.304688 C 195.523438 188.304688 195.132812 188.226562 194.757812 188.070312 C 194.386719 187.917969 194.054688 187.695312 193.769531 187.410156 C 193.480469 187.125 193.261719 186.792969 193.105469 186.417969 C 192.949219 186.042969 192.875 185.65625 192.875 185.25 C 192.875 184.84375 192.949219 184.453125 193.105469 184.082031 C 193.261719 183.707031 193.480469 183.375 193.769531 183.089844 C 194.054688 182.800781 194.386719 182.582031 194.757812 182.425781 C 195.132812 182.273438 195.523438 182.195312 195.929688 182.195312 C 196.332031 182.195312 196.722656 182.273438 197.097656 182.425781 C 197.472656 182.582031 197.800781 182.800781 198.089844 183.089844 C 198.375 183.375 198.597656 183.707031 198.75 184.082031 C 198.90625 184.453125 198.984375 184.84375 198.984375 185.25 Z M 198.984375 185.25 " fill-opacity="1" fill-rule="nonzero"/><path fill="#262a41" d="M 179.277344 166.003906 C 179.277344 166.40625 179.199219 166.796875 179.042969 167.171875 C 178.890625 167.546875 178.667969 167.875 178.382812 168.164062 C 178.097656 168.449219 177.765625 168.671875 177.390625 168.824219 C 177.015625 168.980469 176.628906 169.058594 176.222656 169.058594 C 175.816406 169.058594 175.425781 168.980469 175.054688 168.824219 C 174.679688 168.671875 174.347656 168.449219 174.0625 168.164062 C 173.773438 167.875 173.554688 167.546875 173.398438 167.171875 C 173.246094 166.796875 173.167969 166.40625 173.167969 166.003906 C 173.167969 165.597656 173.246094 165.207031 173.398438 164.832031 C 173.554688 164.460938 173.773438 164.128906 174.0625 163.84375 C 174.347656 163.554688 174.679688 163.335938 175.054688 163.179688 C 175.425781 163.023438 175.816406 162.949219 176.222656 162.949219 C 176.628906 162.949219 177.015625 163.023438 177.390625 163.179688 C 177.765625 163.335938 178.097656 163.554688 178.382812 163.84375 C 178.667969 164.128906 178.890625 164.460938 179.046875 164.832031 C 179.199219 165.207031 179.277344 165.597656 179.277344 166.003906 Z M 179.277344 166.003906 " fill-opacity="1" fill-rule="nonzero"/><path fill="#262a41" d="M 143.453125 201.363281 C 143.453125 201.769531 143.378906 202.160156 143.222656 202.535156 C 143.066406 202.90625 142.847656 203.238281 142.558594 203.523438 C 142.273438 203.8125 141.941406 204.03125 141.570312 204.1875 C 141.195312 204.34375 140.804688 204.417969 140.398438 204.417969 C 139.996094 204.417969 139.605469 204.34375 139.230469 204.1875 C 138.855469 204.03125 138.527344 203.8125 138.238281 203.523438 C 137.953125 203.238281 137.730469 202.90625 137.578125 202.535156 C 137.421875 202.160156 137.34375 201.769531 137.34375 201.363281 C 137.34375 200.960938 137.421875 200.570312 137.578125 200.195312 C 137.730469 199.820312 137.953125 199.492188 138.238281 199.203125 C 138.527344 198.917969 138.855469 198.699219 139.230469 198.542969 C 139.605469 198.386719 139.996094 198.308594 140.398438 198.308594 C 140.804688 198.308594 141.195312 198.386719 141.570312 198.542969 C 141.941406 198.699219 142.273438 198.917969 142.558594 199.203125 C 142.847656 199.492188 143.066406 199.820312 143.222656 200.195312 C 143.378906 200.570312 143.453125 200.960938 143.453125 201.363281 Z M 143.453125 201.363281 " fill-opacity="1" fill-rule="nonzero"/><path fill="#262a41" d="M 116.796875 174.863281 C 116.796875 175.265625 116.71875 175.65625 116.566406 176.03125 C 116.410156 176.40625 116.1875 176.734375 115.902344 177.023438 C 115.617188 177.308594 115.285156 177.53125 114.910156 177.683594 C 114.539062 177.839844 114.148438 177.917969 113.742188 177.917969 C 113.335938 177.917969 112.949219 177.839844 112.574219 177.683594 C 112.199219 177.53125 111.867188 177.308594 111.582031 177.023438 C 111.296875 176.734375 111.074219 176.40625 110.917969 176.03125 C 110.765625 175.65625 110.6875 175.265625 110.6875 174.863281 C 110.6875 174.457031 110.765625 174.066406 110.917969 173.691406 C 111.074219 173.320312 111.296875 172.988281 111.582031 172.703125 C 111.867188 172.414062 112.199219 172.195312 112.574219 172.039062 C 112.949219 171.882812 113.335938 171.808594 113.742188 171.808594 C 114.148438 171.808594 114.539062 171.882812 114.910156 172.039062 C 115.285156 172.195312 115.617188 172.414062 115.902344 172.703125 C 116.1875 172.988281 116.410156 173.320312 116.566406 173.691406 C 116.71875 174.066406 116.796875 174.457031 116.796875 174.863281 Z M 116.796875 174.863281 " fill-opacity="1" fill-rule="nonzero"/><path fill="#262a41" d="M 86.78125 173.410156 C 86.78125 173.816406 86.703125 174.207031 86.546875 174.582031 C 86.390625 174.953125 86.171875 175.285156 85.886719 175.570312 C 85.597656 175.859375 85.269531 176.078125 84.894531 176.234375 C 84.519531 176.386719 84.128906 176.464844 83.722656 176.464844 C 83.320312 176.464844 82.929688 176.386719 82.554688 176.234375 C 82.179688 176.078125 81.851562 175.859375 81.5625 175.570312 C 81.277344 175.285156 81.058594 174.953125 80.902344 174.582031 C 80.746094 174.207031 80.667969 173.816406 80.667969 173.410156 C 80.667969 173.007812 80.746094 172.617188 80.902344 172.242188 C 81.058594 171.867188 81.277344 171.539062 81.5625 171.25 C 81.851562 170.964844 82.179688 170.742188 82.554688 170.589844 C 82.929688 170.433594 83.320312 170.355469 83.722656 170.355469 C 84.128906 170.355469 84.519531 170.433594 84.894531 170.589844 C 85.269531 170.742188 85.597656 170.964844 85.886719 171.25 C 86.171875 171.539062 86.390625 171.867188 86.546875 172.242188 C 86.703125 172.617188 86.78125 173.007812 86.78125 173.410156 Z M 86.78125 173.410156 " fill-opacity="1" fill-rule="nonzero"/><path fill="#262a41" d="M 61.652344 198.386719 C 61.648438 198.792969 61.574219 199.179688 61.417969 199.554688 C 61.261719 199.929688 61.042969 200.261719 60.753906 200.546875 C 60.46875 200.832031 60.136719 201.054688 59.765625 201.207031 C 59.390625 201.363281 59 201.441406 58.59375 201.441406 C 58.191406 201.441406 57.800781 201.363281 57.425781 201.207031 C 57.050781 201.054688 56.722656 200.832031 56.433594 200.546875 C 56.148438 200.261719 55.925781 199.929688 55.773438 199.554688 C 55.617188 199.179688 55.539062 198.792969 55.539062 198.386719 C 55.539062 197.980469 55.617188 197.589844 55.773438 197.21875 C 55.925781 196.84375 56.148438 196.511719 56.433594 196.226562 C 56.722656 195.9375 57.050781 195.71875 57.425781 195.5625 C 57.800781 195.410156 58.191406 195.332031 58.59375 195.332031 C 59 195.332031 59.390625 195.410156 59.765625 195.5625 C 60.136719 195.71875 60.46875 195.9375 60.753906 196.226562 C 61.042969 196.511719 61.261719 196.84375 61.417969 197.21875 C 61.574219 197.589844 61.648438 197.980469 61.652344 198.386719 Z M 61.652344 198.386719 " fill-opacity="1" fill-rule="nonzero"/><path fill="#262a41" d="M 102.4375 187.3125 C 102.4375 187.714844 102.359375 188.105469 102.207031 188.480469 C 102.050781 188.855469 101.828125 189.183594 101.542969 189.472656 C 101.257812 189.757812 100.925781 189.980469 100.550781 190.132812 C 100.175781 190.289062 99.789062 190.367188 99.382812 190.367188 C 98.976562 190.367188 98.585938 190.289062 98.214844 190.132812 C 97.839844 189.980469 97.507812 189.757812 97.222656 189.472656 C 96.9375 189.183594 96.714844 188.855469 96.558594 188.480469 C 96.40625 188.105469 96.328125 187.714844 96.328125 187.3125 C 96.328125 186.90625 96.40625 186.515625 96.558594 186.140625 C 96.714844 185.769531 96.9375 185.4375 97.222656 185.152344 C 97.507812 184.863281 97.839844 184.644531 98.214844 184.488281 C 98.585938 184.335938 98.976562 184.257812 99.382812 184.257812 C 99.789062 184.257812 100.175781 184.335938 100.550781 184.488281 C 100.925781 184.644531 101.257812 184.863281 101.542969 185.152344 C 101.828125 185.4375 102.050781 185.769531 102.207031 186.140625 C 102.359375 186.515625 102.4375 186.90625 102.4375 187.3125 Z M 102.4375 187.3125 " fill-opacity="1" fill-rule="nonzero"/><path fill="#d4def9" d="M 84.566406 226.722656 L 96.328125 226.722656 L 96.328125 235.886719 L 84.566406 235.886719 Z M 84.566406 226.722656 " fill-opacity="1" fill-rule="nonzero"/><path fill="#d4def9" d="M 102.515625 222.75 L 114.277344 222.75 L 114.277344 235.886719 L 102.515625 235.886719 Z M 102.515625 222.75 " fill-opacity="1" fill-rule="nonzero"/><path fill="#d4def9" d="M 48.664062 226.722656 L 60.429688 226.722656 L 60.429688 235.886719 L 48.664062 235.886719 Z M 48.664062 226.722656 " fill-opacity="1" fill-rule="nonzero"/><path fill="#d4def9" d="M 66.613281 222.75 L 78.378906 222.75 L 78.378906 235.886719 L 66.613281 235.886719 Z M 66.613281 222.75 " fill-opacity="1" fill-rule="nonzero"/><path fill="#d4def9" d="M 120.464844 214.652344 L 132.226562 214.652344 L 132.226562 235.886719 L 120.464844 235.886719 Z M 120.464844 214.652344 " fill-opacity="1" fill-rule="nonzero"/><path fill="#d4def9" d="M 138.414062 217.328125 L 150.175781 217.328125 L 150.175781 235.808594 L 138.414062 235.808594 Z M 138.414062 217.328125 " fill-opacity="1" fill-rule="nonzero"/><path fill="#d4def9" d="M 156.363281 209.460938 L 168.125 209.460938 L 168.125 235.886719 L 156.363281 235.886719 Z M 156.363281 209.460938 " fill-opacity="1" fill-rule="nonzero"/><path fill="#d4def9" d="M 174.3125 204.496094 L 186.074219 204.496094 L 186.074219 235.886719 L 174.3125 235.886719 Z M 174.3125 204.496094 " fill-opacity="1" fill-rule="nonzero"/><path fill="#d4def9" d="M 192.339844 217.328125 L 204.101562 217.328125 L 204.101562 235.808594 L 192.339844 235.808594 Z M 192.339844 217.328125 " fill-opacity="1" fill-rule="nonzero"/><path fill="#d4def9" d="M 210.289062 209.460938 L 222.050781 209.460938 L 222.050781 235.886719 L 210.289062 235.886719 Z M 210.289062 209.460938 " fill-opacity="1" fill-rule="nonzero"/><path fill="#d4def9" d="M 228.238281 204.496094 L 240 204.496094 L 240 235.886719 L 228.238281 235.886719 Z M 228.238281 204.496094 " fill-opacity="1" fill-rule="nonzero"/><path fill="#5385ea" d="M 55.234375 139.957031 L 113.667969 139.957031 L 113.667969 142.480469 L 55.234375 142.480469 Z M 55.234375 139.957031 " fill-opacity="1" fill-rule="nonzero"/><path fill="#5385ea" d="M 55.234375 147.136719 L 83.039062 147.136719 L 83.039062 149.65625 L 55.234375 149.65625 Z M 55.234375 147.136719 " fill-opacity="1" fill-rule="nonzero"/><path fill="#ffffff" d="M 193.484375 74.960938 L 274.601562 74.960938 L 274.601562 158.746094 L 193.484375 158.746094 Z M 193.484375 74.960938 " fill-opacity="1" fill-rule="nonzero"/><path fill="#262a41" d="M 274.984375 159.050781 L 193.101562 159.050781 L 193.101562 74.582031 L 274.984375 74.582031 Z M 193.867188 158.289062 L 274.21875 158.289062 L 274.21875 75.34375 L 193.867188 75.34375 Z M 193.867188 158.289062 " fill-opacity="1" fill-rule="nonzero"/><path fill="#d4def9" d="M 234.042969 85.960938 L 234.042969 96.5 C 226.785156 96.5 220.828125 102.382812 220.828125 109.714844 L 210.289062 109.714844 C 210.289062 96.578125 220.90625 85.960938 234.042969 85.960938 Z M 234.042969 85.960938 " fill-opacity="1" fill-rule="nonzero"/><path fill="#5385ea" d="M 250.769531 126.515625 C 246.492188 130.792969 240.535156 133.390625 234.042969 133.390625 C 220.90625 133.390625 210.289062 122.773438 210.289062 109.636719 L 220.828125 109.636719 C 220.828125 116.894531 226.710938 122.851562 234.042969 122.851562 C 237.632812 122.851562 240.917969 121.398438 243.285156 119.03125 Z M 250.769531 126.515625 " fill-opacity="1" fill-rule="nonzero"/><path fill="#5385ea" d="M 257.796875 109.714844 C 257.796875 116.28125 255.125 122.238281 250.769531 126.515625 L 243.285156 119.03125 C 245.730469 116.664062 247.179688 113.304688 247.179688 109.636719 C 247.179688 102.382812 241.300781 96.425781 233.964844 96.425781 L 233.964844 85.882812 C 247.179688 85.960938 257.796875 96.578125 257.796875 109.714844 Z M 257.796875 109.714844 " fill-opacity="1" fill-rule="nonzero"/><path fill="#d4def9" d="M 209.675781 138.890625 L 258.332031 138.890625 L 258.332031 140.570312 L 209.675781 140.570312 Z M 209.675781 138.890625 " fill-opacity="1" fill-rule="nonzero"/><path fill="#d4def9" d="M 209.675781 146.070312 L 258.332031 146.070312 L 258.332031 147.75 L 209.675781 147.75 Z M 209.675781 146.070312 " fill-opacity="1" fill-rule="nonzero"/><path fill="#262a41" d="M 9.710938 307.144531 L 338.226562 307.144531 L 338.226562 309.359375 L 9.710938 309.359375 Z M 9.710938 307.144531 " fill-opacity="1" fill-rule="nonzero"/><path fill="#5385ea" d="M 13.378906 158.210938 L 71.425781 158.210938 L 71.425781 202.585938 L 13.378906 202.585938 Z M 13.378906 158.210938 " fill-opacity="1" fill-rule="nonzero"/><path fill="#ffffff" d="M 39.957031 183.570312 L 44.847656 183.570312 L 44.847656 191.589844 L 39.957031 191.589844 Z M 39.957031 183.570312 " fill-opacity="1" fill-rule="nonzero"/><path fill="#262a41" d="M 49.046875 174.558594 L 53.9375 174.558594 L 53.9375 191.511719 L 49.046875 191.511719 Z M 49.046875 174.558594 " fill-opacity="1" fill-rule="nonzero"/><path fill="#ffffff" d="M 21.855469 187.160156 L 26.746094 187.160156 L 26.746094 191.511719 L 21.855469 191.511719 Z M 21.855469 187.160156 " fill-opacity="1" fill-rule="nonzero"/><path fill="#262a41" d="M 30.867188 180.054688 L 35.757812 180.054688 L 35.757812 191.511719 L 30.867188 191.511719 Z M 30.867188 180.054688 " fill-opacity="1" fill-rule="nonzero"/><path fill="#ffffff" d="M 58.058594 169.285156 L 62.949219 169.285156 L 62.949219 191.589844 L 58.058594 191.589844 Z M 58.058594 169.285156 " fill-opacity="1" fill-rule="nonzero"/><path fill="#ffffff" d="M 171.488281 269.492188 L 130.089844 269.492188 C 129.554688 269.492188 129.09375 269.035156 129.09375 268.5 C 129.09375 267.964844 129.554688 267.507812 130.089844 267.507812 L 171.5625 267.507812 C 172.097656 267.507812 172.554688 267.964844 172.554688 268.5 C 172.554688 269.035156 172.097656 269.492188 171.488281 269.492188 Z M 171.488281 269.492188 " fill-opacity="1" fill-rule="nonzero"/><path fill="#5385ea" d="M 146.203125 269.492188 L 130.089844 269.492188 C 129.554688 269.492188 129.09375 269.035156 129.09375 268.5 C 129.09375 267.964844 129.554688 267.507812 130.089844 267.507812 L 146.203125 267.507812 C 146.738281 267.507812 147.199219 267.964844 147.199219 268.5 C 147.199219 269.035156 146.738281 269.492188 146.203125 269.492188 Z M 146.203125 269.492188 " fill-opacity="1" fill-rule="nonzero"/><path fill="#ffffff" d="M 171.488281 276.976562 L 130.089844 276.976562 C 129.554688 276.976562 129.09375 276.519531 129.09375 275.984375 C 129.09375 275.449219 129.554688 274.992188 130.089844 274.992188 L 171.5625 274.992188 C 172.097656 274.992188 172.554688 275.449219 172.554688 275.984375 C 172.554688 276.519531 172.097656 276.976562 171.488281 276.976562 Z M 171.488281 276.976562 " fill-opacity="1" fill-rule="nonzero"/><path fill="#5385ea" d="M 153.078125 276.976562 L 130.089844 276.976562 C 129.554688 276.976562 129.09375 276.519531 129.09375 275.984375 C 129.09375 275.449219 129.554688 274.992188 130.089844 274.992188 L 153.15625 274.992188 C 153.691406 274.992188 154.148438 275.449219 154.148438 275.984375 C 154.148438 276.519531 153.691406 276.976562 153.078125 276.976562 Z M 153.078125 276.976562 " fill-opacity="1" fill-rule="nonzero"/><path fill="#ffffff" d="M 171.488281 284.460938 L 130.089844 284.460938 C 129.554688 284.460938 129.09375 284.003906 129.09375 283.46875 C 129.09375 282.933594 129.554688 282.476562 130.089844 282.476562 L 171.5625 282.476562 C 172.097656 282.476562 172.554688 282.933594 172.554688 283.46875 C 172.554688 284.003906 172.097656 284.460938 171.488281 284.460938 Z M 171.488281 284.460938 " fill-opacity="1" fill-rule="nonzero"/><path fill="#262a41" d="M 162.855469 284.460938 L 130.011719 284.460938 C 129.476562 284.460938 129.019531 284.003906 129.019531 283.46875 C 129.019531 282.933594 129.476562 282.476562 130.011719 282.476562 L 162.855469 282.476562 C 163.390625 282.476562 163.847656 282.933594 163.847656 283.46875 C 163.925781 284.003906 163.464844 284.460938 162.855469 284.460938 Z M 162.855469 284.460938 " fill-opacity="1" fill-rule="nonzero"/><path fill="#ffffff" d="M 332.191406 140.1875 C 331.734375 141.5625 331.046875 142.859375 330.128906 144.007812 C 329.519531 144.847656 328.753906 145.535156 327.839844 146.222656 C 326.3125 147.367188 324.632812 148.054688 322.875 148.4375 L 322.339844 145.6875 C 325.699219 145 328.449219 142.554688 329.441406 139.347656 Z M 332.191406 140.1875 " fill-opacity="1" fill-rule="nonzero"/><path fill="#5385ea" d="M 332.191406 140.1875 L 329.519531 139.269531 C 329.824219 138.355469 329.976562 137.363281 329.976562 136.367188 C 329.976562 131.632812 326.464844 127.660156 321.882812 127.050781 L 322.261719 124.226562 C 323.636719 124.453125 324.9375 124.835938 326.234375 125.523438 C 327.761719 126.363281 329.214844 127.507812 330.359375 129.035156 C 332.878906 132.320312 333.414062 136.519531 332.191406 140.1875 Z M 332.191406 140.1875 " fill-opacity="1" fill-rule="nonzero"/><path fill="#5385ea" d="M 322.875 148.359375 C 318.367188 149.199219 313.632812 147.597656 310.652344 143.625 C 306.605469 138.203125 307.75 130.488281 313.171875 126.441406 C 315.847656 124.378906 319.207031 123.691406 322.261719 124.148438 L 321.882812 126.972656 C 321.421875 126.898438 320.964844 126.898438 320.507812 126.898438 C 315.3125 126.898438 311.113281 131.097656 311.113281 136.292969 C 311.113281 141.484375 315.3125 145.6875 320.507812 145.6875 C 321.117188 145.6875 321.726562 145.609375 322.339844 145.535156 Z M 322.875 148.359375 " fill-opacity="1" fill-rule="nonzero"/><path fill="#ffffff" d="M 321.882812 168.753906 C 321.652344 169.441406 321.269531 170.128906 320.8125 170.660156 C 320.507812 171.042969 320.125 171.425781 319.667969 171.808594 C 318.902344 172.417969 318.0625 172.722656 317.144531 172.953125 L 316.839844 171.578125 C 318.519531 171.273438 319.972656 169.972656 320.429688 168.371094 Z M 321.882812 168.753906 " fill-opacity="1" fill-rule="nonzero"/><path fill="#5385ea" d="M 321.882812 168.753906 L 320.507812 168.292969 C 320.660156 167.835938 320.734375 167.300781 320.734375 166.765625 C 320.734375 164.324219 318.980469 162.335938 316.609375 162.03125 L 316.839844 160.578125 C 317.527344 160.65625 318.214844 160.886719 318.824219 161.265625 C 319.589844 161.648438 320.355469 162.261719 320.886719 163.023438 C 322.1875 164.78125 322.492188 166.917969 321.882812 168.753906 Z M 321.882812 168.753906 " fill-opacity="1" fill-rule="nonzero"/><path fill="#5385ea" d="M 317.144531 172.953125 C 314.855469 173.410156 312.410156 172.570312 310.957031 170.585938 C 308.894531 167.835938 309.429688 163.941406 312.257812 161.878906 C 313.632812 160.886719 315.3125 160.503906 316.917969 160.734375 L 316.6875 162.183594 C 316.457031 162.183594 316.230469 162.109375 316 162.109375 C 313.328125 162.109375 311.1875 164.246094 311.1875 166.917969 C 311.1875 169.59375 313.328125 171.730469 316 171.730469 C 316.304688 171.730469 316.609375 171.730469 316.917969 171.65625 Z M 317.144531 172.953125 " fill-opacity="1" fill-rule="nonzero"/><path fill="#f4a9a2" d="M 251.304688 214.195312 C 235.265625 214.808594 206.621094 297.21875 217.773438 298.820312 C 232.898438 309.285156 277.351562 218.398438 251.304688 214.195312 Z M 251.304688 214.195312 " fill-opacity="1" fill-rule="nonzero"/><path fill="#f4a9a2" d="M 224.648438 298.589844 C 222.433594 299.8125 219.605469 299.585938 217.390625 298.285156 C 200.054688 288.050781 160.871094 221.679688 166.675781 220.839844 C 170.1875 218.777344 241.605469 289.273438 224.648438 298.589844 Z M 224.648438 298.589844 " fill-opacity="1" fill-rule="nonzero"/><path fill="#f4a9a2" d="M 180.269531 229.164062 L 218.15625 269.414062 L 223.503906 257.652344 L 244.582031 272.777344 C 244.582031 272.777344 232.363281 298.746094 220.90625 300.578125 C 209.449219 302.410156 168.964844 232.753906 168.964844 232.753906 Z M 180.269531 229.164062 " fill-opacity="1" fill-rule="nonzero"/><path fill="#f4a9a2" d="M 178.972656 230.539062 C 178.972656 230.539062 180.269531 231.304688 180.269531 231.304688 L 180.804688 227.867188 L 181.417969 221.832031 C 181.570312 220.304688 181.339844 218.703125 180.730469 217.328125 L 176.679688 211.753906 C 176.679688 211.753906 174.617188 211.371094 176.070312 215.035156 C 176.453125 215.953125 176.144531 217.554688 175.839844 218.855469 L 173.929688 215.496094 C 173.929688 215.496094 169.5 208.007812 169.5 208.007812 C 168.8125 207.015625 166.828125 207.933594 166.0625 208.316406 C 164.460938 209.078125 163.390625 209.84375 162.933594 211.523438 C 162.703125 212.515625 162.398438 213.507812 162.246094 214.5 C 161.863281 217.402344 162.398438 220.304688 163.3125 223.054688 C 164.078125 225.269531 165.070312 227.410156 166.292969 229.394531 C 167.4375 231.304688 168.964844 232.832031 170.1875 234.664062 C 171.640625 233.902344 173.089844 233.289062 174.617188 232.527344 C 175.609375 232.066406 176.605469 231.609375 177.597656 231.074219 C 177.828125 231.074219 178.894531 230.464844 178.972656 230.539062 Z M 178.972656 230.539062 " fill-opacity="1" fill-rule="nonzero"/><path fill="#d4def9" d="M 157.203125 191.664062 C 147.730469 197.242188 135.894531 195.40625 128.558594 187.847656 C 127.492188 186.777344 126.574219 185.554688 125.734375 184.257812 C 125.503906 183.949219 125.277344 183.570312 125.125 183.265625 C 124.742188 182.578125 124.359375 181.964844 124.054688 181.277344 C 122.527344 177.992188 121.839844 174.558594 121.839844 171.195312 C 121.914062 163.253906 126.039062 155.460938 133.449219 151.1875 C 140.933594 146.832031 149.792969 146.984375 156.820312 150.957031 C 159.800781 152.636719 162.472656 154.929688 164.535156 157.90625 C 164.917969 158.441406 165.300781 158.976562 165.605469 159.585938 C 165.835938 160.046875 166.0625 160.425781 166.292969 160.886719 C 166.980469 162.261719 167.515625 163.710938 167.972656 165.164062 C 170.722656 175.015625 166.597656 186.089844 157.203125 191.664062 Z M 157.203125 191.664062 " fill-opacity="1" fill-rule="nonzero"/><path fill="#262a41" d="M 170.113281 156.761719 C 162.015625 143.011719 144.371094 138.429688 130.621094 146.527344 C 116.875 154.621094 112.292969 172.265625 120.386719 186.011719 C 127.871094 198.769531 143.761719 203.65625 156.972656 197.699219 C 157.96875 197.242188 158.882812 196.78125 159.875 196.246094 C 160.792969 195.714844 161.710938 195.101562 162.550781 194.414062 C 174.238281 185.785156 177.671875 169.59375 170.113281 156.761719 Z M 123.671875 184.105469 C 116.644531 172.113281 120.617188 156.761719 132.609375 149.734375 C 144.601562 142.707031 159.953125 146.679688 166.980469 158.671875 C 174.007812 170.660156 170.035156 186.011719 158.042969 193.039062 C 146.050781 200.066406 130.699219 196.09375 123.671875 184.105469 Z M 123.671875 184.105469 " fill-opacity="1" fill-rule="nonzero"/><path fill="#262a41" d="M 157.035156 197.269531 L 162.171875 194.25 L 181.53125 227.167969 L 176.394531 230.1875 Z M 157.035156 197.269531 " fill-opacity="1" fill-rule="nonzero"/><path fill="#262a41" d="M 190.199219 241.613281 L 184.851562 244.746094 C 184.242188 245.128906 183.476562 244.898438 183.097656 244.289062 L 165.222656 213.890625 C 164.839844 213.28125 165.070312 212.515625 165.683594 212.132812 L 171.027344 209.003906 C 171.640625 208.621094 172.402344 208.851562 172.785156 209.460938 L 190.660156 239.859375 C 190.964844 240.46875 190.8125 241.308594 190.199219 241.613281 Z M 190.199219 241.613281 " fill-opacity="1" fill-rule="nonzero"/><path fill="#ffffff" d="M 164.460938 157.832031 L 123.976562 181.277344 C 122.449219 177.992188 121.761719 174.558594 121.761719 171.195312 L 156.746094 150.878906 C 159.800781 152.558594 162.398438 154.929688 164.460938 157.832031 Z M 164.460938 157.832031 " fill-opacity="0.2" fill-rule="nonzero"/><path fill="#ffffff" d="M 167.898438 165.011719 L 128.558594 187.847656 C 127.492188 186.777344 126.574219 185.554688 125.734375 184.257812 L 166.292969 160.734375 C 166.980469 162.183594 167.515625 163.558594 167.898438 165.011719 Z M 167.898438 165.011719 " fill-opacity="0.2" fill-rule="nonzero"/><path fill="#5385ea" d="M 252.601562 210.988281 L 252.449219 231.226562 L 252.144531 271.171875 C 252.144531 271.171875 251.839844 271.707031 251.230469 272.625 C 251.074219 272.851562 250.921875 273.082031 250.769531 273.386719 C 250.234375 274.226562 249.625 275.21875 248.859375 276.441406 L 239.847656 270.332031 L 236.488281 268.117188 L 222.660156 258.722656 C 227.09375 247.34375 231.597656 236.34375 234.882812 230.386719 C 243.4375 214.425781 252.601562 210.988281 252.601562 210.988281 Z M 252.601562 210.988281 " fill-opacity="1" fill-rule="nonzero"/><path fill="#f4a9a2" d="M 292.933594 213.660156 L 279.71875 223.589844 L 270.324219 215.1875 L 270.324219 202.511719 L 289.113281 187.847656 L 289.496094 190.0625 L 290.414062 196.78125 Z M 292.933594 213.660156 " fill-opacity="1" fill-rule="nonzero"/><path fill="#262a41" d="M 289.726562 192.351562 C 284.605469 202.585938 272.691406 207.628906 270.324219 208.316406 L 270.324219 205.640625 L 287.816406 190.136719 C 287.816406 190.136719 288.503906 190.0625 289.417969 190.0625 Z M 289.726562 192.351562 " fill-opacity="1" fill-rule="nonzero"/><path fill="#f4a9a2" d="M 290.71875 190.441406 C 290.71875 190.441406 287.203125 198.234375 279.109375 202.128906 C 275.289062 203.960938 271.011719 206.480469 266.582031 205.640625 C 262.6875 204.878906 260.625 201.058594 259.019531 197.851562 C 257.414062 194.71875 256.652344 191.207031 256.652344 187.695312 C 256.652344 183.949219 256.878906 180.285156 256.039062 176.542969 C 255.429688 173.640625 254.4375 169.972656 256.195312 167.226562 C 258.484375 163.710938 276.207031 159.28125 276.207031 159.28125 L 286.667969 165.011719 L 294.535156 170.203125 Z M 290.71875 190.441406 " fill-opacity="1" fill-rule="nonzero"/><path fill="#262a41" d="M 266.886719 167.757812 C 266.886719 167.757812 267.421875 170.660156 270.398438 171.882812 C 270.398438 171.882812 264.75 172.570312 261.3125 169.972656 C 261.3125 169.972656 262.914062 172.417969 264.289062 172.875 C 264.289062 172.875 257.1875 173.183594 254.894531 170.585938 L 255.734375 175.089844 C 255.734375 175.089844 251.609375 170.96875 251.6875 165.925781 C 251.761719 162.335938 253.367188 159.128906 254.4375 155.769531 C 255.125 153.554688 256.195312 151.109375 258.332031 149.964844 C 263.984375 146.910156 270.933594 147.441406 276.96875 148.972656 C 281.78125 150.191406 286.746094 151.875 290.640625 155.082031 C 300.875 163.636719 296.980469 182.5 290.03125 191.96875 C 290.03125 191.96875 289.191406 183.339844 289.039062 180.667969 C 288.882812 177.992188 286.515625 177.304688 286.59375 178.605469 C 286.667969 179.902344 286.441406 186.089844 285.140625 186.089844 C 283.765625 186.011719 283.308594 175.089844 280.101562 172.800781 C 276.738281 170.585938 269.484375 169.898438 266.886719 167.757812 Z M 266.886719 167.757812 " fill-opacity="1" fill-rule="nonzero"/><path fill="#5385ea" d="M 332.878906 303.632812 L 245.117188 303.632812 C 242.902344 276.289062 239.925781 233.671875 242.367188 224.8125 C 245.117188 214.652344 250.542969 210.53125 258.867188 208.695312 C 261.386719 208.164062 267.269531 207.550781 270.324219 207.320312 C 272.921875 221.300781 292.09375 207.628906 292.09375 207.628906 C 292.09375 207.628906 296.675781 208.085938 300.035156 208.316406 C 307.828125 208.773438 321.195312 211.292969 323.867188 222.902344 C 325.164062 228.476562 326.691406 243.066406 328.375 259.5625 C 329.289062 268.882812 330.207031 278.808594 331.199219 288.050781 C 331.8125 293.472656 332.34375 298.820312 332.878906 303.632812 Z M 332.878906 303.632812 " fill-opacity="1" fill-rule="nonzero"/><path fill="#ffffff" d="M 270.324219 205.949219 L 274.21875 212.972656 L 270.171875 216.105469 L 266.964844 207.550781 " fill-opacity="1" fill-rule="nonzero"/><path fill="#ffffff" d="M 274.21875 212.972656 L 291.558594 203.808594 L 295.070312 208.164062 L 276.738281 217.863281 Z M 274.21875 212.972656 " fill-opacity="1" fill-rule="nonzero"/><path fill="#f4a9a2" d="M 312.792969 217.554688 C 302.097656 229.546875 341.359375 307.453125 350.296875 300.5 C 368.320312 296.988281 333.875 201.824219 312.792969 217.554688 Z M 312.792969 217.554688 " fill-opacity="1" fill-rule="nonzero"/><path fill="#f4a9a2" d="M 347.925781 257.347656 C 347.925781 257.347656 360.835938 289.886719 355.335938 297.0625 C 349.761719 304.320312 296.371094 308.445312 296.371094 308.445312 L 294.078125 293.78125 C 294.078125 293.78125 331.199219 284.691406 331.277344 284.082031 C 331.351562 283.546875 322.261719 267.507812 322.261719 267.507812 Z M 347.925781 257.347656 " fill-opacity="1" fill-rule="nonzero"/><path fill="#f4a9a2" d="M 356.40625 293.398438 C 356.40625 295.996094 354.800781 298.285156 352.585938 299.585938 C 335.171875 309.589844 258.027344 310.886719 260.242188 305.464844 C 260.089844 301.339844 356.632812 274.074219 356.40625 293.398438 Z M 356.40625 293.398438 " fill-opacity="1" fill-rule="nonzero"/><path fill="#5385ea" d="M 321.652344 269.570312 C 316.152344 259.5625 309.277344 246.351562 307.445312 239.78125 C 307.445312 239.78125 295.378906 215.035156 304.390625 210.988281 C 305.613281 210.453125 308.132812 209.535156 309.355469 209.84375 C 318.519531 212.058594 328.066406 218.703125 334.5625 228.019531 C 338.839844 234.207031 344.566406 245.585938 349.300781 257.5 Z M 321.652344 269.570312 " fill-opacity="1" fill-rule="nonzero"/><g clip-path="url(#2dc903539e)"><path fill="#f4a9a2" d="M 239.390625 311.652344 C 239.542969 311.269531 245.652344 298.820312 252.601562 297.675781 C 259.554688 296.53125 269.027344 299.964844 270.324219 299.964844 C 271.621094 299.964844 274.523438 299.738281 274.523438 299.738281 L 276.585938 307.984375 C 276.585938 307.984375 271.164062 307.910156 270.398438 308.824219 C 269.636719 309.742188 269.332031 311.039062 266.429688 311.039062 C 263.527344 311.039062 260.625 308.367188 257.035156 308.367188 C 253.519531 308.367188 250.921875 312.492188 247.792969 312.492188 C 244.660156 312.492188 239.390625 311.652344 239.390625 311.652344 Z M 239.390625 311.652344 " fill-opacity="1" fill-rule="nonzero"/></g><path fill="#262a41" d="M 242.269531 244.375 L 243.03125 244.371094 L 243.246094 271.789062 L 242.484375 271.796875 Z M 242.269531 244.375 " fill-opacity="1" fill-rule="nonzero"/><path fill="#262a41" d="M 308.945312 246.320312 L 309.621094 245.960938 L 322.019531 269.386719 L 321.34375 269.746094 Z M 308.945312 246.320312 " fill-opacity="1" fill-rule="nonzero"/></svg>