<svg xmlns="http://www.w3.org/2000/svg" xmlns:xlink="http://www.w3.org/1999/xlink" width="500" zoomAndPan="magnify" viewBox="0 0 375 374.999991" height="500" preserveAspectRatio="xMidYMid meet" version="1.0"><defs><clipPath id="8e3676036f"><path d="M 20.832031 37.5 L 351 37.5 L 351 337.5 L 20.832031 337.5 Z M 20.832031 37.5 " clip-rule="nonzero"/></clipPath><clipPath id="91d4188369"><path d="M 223.753906 261.058594 L 268.816406 261.058594 L 268.816406 306.121094 L 223.753906 306.121094 Z M 223.753906 261.058594 " clip-rule="nonzero"/></clipPath><clipPath id="9e8904dc6c"><path d="M 246.285156 261.058594 C 233.839844 261.058594 223.753906 271.144531 223.753906 283.589844 C 223.753906 296.03125 233.839844 306.121094 246.285156 306.121094 C 258.726562 306.121094 268.816406 296.03125 268.816406 283.589844 C 268.816406 271.144531 258.726562 261.058594 246.285156 261.058594 Z M 246.285156 261.058594 " clip-rule="nonzero"/></clipPath></defs><g clip-path="url(#8e3676036f)"><path fill="#ffffff" d="M 35.074219 175.890625 C 42.9375 175.890625 49.3125 182.265625 49.3125 190.128906 C 49.3125 197.996094 42.9375 204.375 35.074219 204.375 C 27.214844 204.375 20.832031 197.996094 20.832031 190.128906 C 20.832031 182.269531 27.214844 175.890625 35.074219 175.890625 M 44.132812 95.804688 C 50.855469 95.804688 56.304688 101.25 56.304688 107.976562 C 56.304688 114.695312 50.855469 120.148438 44.132812 120.148438 C 37.414062 120.148438 31.964844 114.695312 31.964844 107.976562 C 31.964844 101.25 37.414062 95.804688 44.132812 95.804688 Z M 96.382812 132.703125 C 106.96875 132.703125 115.554688 141.292969 115.554688 151.878906 C 115.554688 162.464844 106.96875 171.046875 96.382812 171.046875 C 85.792969 171.046875 77.207031 162.460938 77.207031 151.878906 C 77.210938 141.285156 85.792969 132.703125 96.382812 132.703125 Z M 118.53125 58.929688 C 128.328125 58.929688 136.273438 66.871094 136.273438 76.671875 C 136.273438 86.46875 128.328125 94.414062 118.53125 94.414062 C 108.738281 94.414062 100.796875 86.46875 100.796875 76.671875 C 100.796875 66.871094 108.738281 58.929688 118.53125 58.929688 Z M 223.527344 71.417969 L 258.519531 122.746094 L 259.925781 122.71875 C 277.539062 122.71875 291.820312 137.003906 291.820312 154.613281 C 291.820312 172.21875 277.539062 186.511719 259.925781 186.511719 C 251.636719 186.511719 243.820312 183.304688 237.964844 177.746094 L 218.820312 184.6875 C 216.8125 191.476562 212.144531 197.109375 206.046875 200.40625 C 211.074219 202.074219 215.480469 205.28125 218.597656 209.582031 L 242.585938 209.476562 C 247.199219 203.457031 254.429688 199.757812 262.269531 199.757812 C 275.949219 199.757812 287.050781 210.851562 287.050781 224.535156 C 287.050781 238.222656 275.957031 249.316406 262.269531 249.316406 C 254.46875 249.316406 247.273438 245.660156 242.65625 239.6875 L 218.378906 239.792969 C 214.542969 244.90625 208.886719 248.421875 202.539062 249.566406 L 193.472656 268.988281 C 194.496094 271.660156 195.023438 274.5 195.023438 277.398438 C 195.023438 284.875 191.53125 291.542969 186.085938 295.855469 C 201.78125 300.304688 215.878906 309.492188 226.332031 322.34375 L 278.035156 322.34375 L 296.757812 285.382812 C 322.554688 278.910156 340.753906 279.851562 331.390625 248.480469 C 339.714844 240.523438 344.851562 237.621094 335.476562 230.667969 C 339.378906 228.65625 340.617188 226.703125 341.175781 224.023438 L 334.398438 211.195312 C 347.953125 203.425781 354.160156 195.671875 349.375 190.140625 L 318.464844 154.652344 C 313.21875 89.957031 270.859375 60.628906 225.4375 58.144531 C 225.480469 58.867188 225.511719 59.589844 225.511719 60.324219 C 225.511719 64.132812 224.835938 67.882812 223.527344 71.417969 Z M 216.289062 58.007812 C 215.125 46.511719 205.417969 37.535156 193.617188 37.535156 C 181.03125 37.535156 170.824219 47.742188 170.824219 60.324219 C 170.824219 62.785156 171.21875 65.160156 171.941406 67.378906 C 174.910156 76.511719 183.492188 83.117188 193.617188 83.117188 C 197.429688 83.117188 201.019531 82.179688 204.175781 80.527344 L 243.75 138.5625 C 239.664062 142.683594 237.136719 148.355469 237.136719 154.605469 L 237.160156 155.570312 L 207.078125 166.480469 C 203.914062 162.488281 199.027344 159.921875 193.535156 159.921875 C 184.007812 159.921875 176.269531 167.65625 176.269531 177.191406 C 176.269531 186.726562 184.007812 194.453125 193.535156 194.453125 C 202.828125 194.453125 210.40625 187.105469 210.785156 177.914062 L 240.8125 167.019531 C 244.882812 173.265625 251.921875 177.398438 259.925781 177.398438 C 272.511719 177.398438 282.714844 167.1875 282.714844 154.605469 C 282.714844 142.019531 272.515625 131.8125 259.925781 131.8125 C 257.941406 131.8125 256.019531 132.070312 254.1875 132.542969 L 213.058594 72.222656 C 215.183594 68.753906 216.402344 64.679688 216.402344 60.324219 C 216.402344 59.542969 216.363281 58.769531 216.289062 58.007812 Z M 163.382812 265.46875 C 159.574219 268.0625 157.070312 272.4375 157.070312 277.390625 C 157.070312 284.867188 162.761719 291.023438 170.046875 291.75 C 170.523438 291.796875 171.003906 291.820312 171.496094 291.820312 C 179.464844 291.820312 185.925781 285.359375 185.925781 277.390625 C 185.925781 274.335938 184.972656 271.496094 183.347656 269.160156 L 196.59375 240.792969 L 198.039062 240.855469 C 204.867188 240.855469 210.722656 236.660156 213.15625 230.703125 L 247.804688 230.554688 C 250.164062 236.222656 255.757812 240.203125 262.277344 240.203125 C 270.933594 240.203125 277.949219 233.1875 277.949219 224.53125 C 277.949219 215.878906 270.933594 208.859375 262.277344 208.859375 C 255.734375 208.859375 250.136719 212.863281 247.78125 218.554688 L 213.292969 218.707031 C 210.949219 212.570312 205 208.210938 198.042969 208.210938 C 192.65625 208.210938 187.878906 210.824219 184.902344 214.851562 L 156.347656 199.214844 C 156.644531 197.863281 156.800781 196.453125 156.800781 195.011719 C 156.800781 188.875 154.027344 183.390625 149.664062 179.746094 L 161.609375 150.214844 C 162.851562 150.371094 164.117188 150.457031 165.394531 150.457031 C 181.703125 150.457031 194.910156 137.242188 194.910156 120.933594 C 194.910156 104.628906 181.695312 91.414062 165.394531 91.414062 C 149.089844 91.414062 135.875 104.628906 135.875 120.933594 C 135.875 131.699219 141.636719 141.113281 150.242188 146.273438 L 138.550781 175.183594 L 136.902344 175.117188 C 125.917969 175.117188 117.007812 184.019531 117.007812 195.011719 C 117.007812 206 125.917969 214.902344 136.902344 214.902344 C 142.109375 214.902344 146.847656 212.902344 150.390625 209.632812 L 181.886719 226.882812 C 182.355469 230.136719 183.78125 233.074219 185.867188 235.414062 L 172.96875 263.046875 L 171.5 262.972656 C 168.492188 262.96875 165.695312 263.890625 163.382812 265.46875 Z M 193.53125 150.820312 C 199.261719 150.820312 204.746094 152.675781 209.242188 156.011719 L 228.523438 149.019531 C 229.199219 145.214844 230.554688 141.582031 232.527344 138.273438 L 200.605469 91.453125 C 198.320312 91.960938 195.980469 92.230469 193.617188 92.230469 L 191.121094 92.128906 C 199.03125 99.203125 204.011719 109.484375 204.011719 120.933594 C 204.011719 133.15625 198.332031 144.054688 189.46875 151.140625 C 190.792969 150.925781 192.148438 150.820312 193.53125 150.820312 Z M 163.085938 304.34375 C 172.242188 304.34375 179.660156 311.765625 179.660156 320.917969 C 179.660156 330.070312 172.242188 337.492188 163.085938 337.492188 C 153.9375 337.492188 146.511719 330.070312 146.511719 320.917969 C 146.511719 311.765625 153.933594 304.34375 163.085938 304.34375 Z M 111.535156 279.230469 C 120.6875 279.230469 128.109375 286.648438 128.109375 295.800781 C 128.109375 304.957031 120.6875 312.375 111.535156 312.375 C 102.378906 312.375 94.960938 304.957031 94.960938 295.800781 C 94.960938 286.648438 102.378906 279.230469 111.535156 279.230469 Z M 85.925781 221.730469 C 93.648438 221.730469 99.90625 227.988281 99.90625 235.707031 C 99.90625 243.429688 93.648438 249.6875 85.925781 249.6875 C 78.199219 249.6875 71.949219 243.421875 71.949219 235.707031 C 71.949219 227.980469 78.207031 221.730469 85.925781 221.730469 Z M 85.925781 221.730469 " fill-opacity="1" fill-rule="evenodd"/></g><g clip-path="url(#91d4188369)"><g clip-path="url(#9e8904dc6c)"><path fill="#ffffff" d="M 223.753906 261.058594 L 268.816406 261.058594 L 268.816406 306.121094 L 223.753906 306.121094 Z M 223.753906 261.058594 " fill-opacity="1" fill-rule="nonzero"/></g></g></svg>